<svg width="1354" height="11" viewBox="0 0 1354 11" fill="none" xmlns="http://www.w3.org/2000/svg">
<path opacity="0.2" d="M2.27441 10.8545L6 0.046875H4.22949L0.503906 10.8545H2.27441ZM10.4026 10.8545L14.1282 0.046875H12.3577L8.63211 10.8545H10.4026ZM31.0067 6.37695V4.83887H25.3123V6.37695H31.0067ZM39.1349 6.37695V4.83887H33.4405V6.37695H39.1349ZM47.2631 6.37695V4.83887H41.5687V6.37695H47.2631ZM55.3913 6.37695V4.83887H49.697V6.37695H55.3913ZM63.5195 6.37695V4.83887H57.8252V6.37695H63.5195ZM71.6477 6.37695V4.83887H65.9534V6.37695H71.6477ZM79.7759 6.37695V4.83887H74.0816V6.37695H79.7759ZM87.9041 6.37695V4.83887H82.2098V6.37695H87.9041ZM96.0323 6.37695V4.83887H90.338V6.37695H96.0323ZM104.161 6.37695V4.83887H98.4662V6.37695H104.161ZM112.289 6.37695V4.83887H106.594V6.37695H112.289ZM120.417 6.37695V4.83887H114.723V6.37695H120.417ZM128.545 6.37695V4.83887H122.851V6.37695H128.545ZM136.673 6.37695V4.83887H130.979V6.37695H136.673ZM144.802 6.37695V4.83887H139.107V6.37695H144.802ZM152.93 6.37695V4.83887H147.235V6.37695H152.93ZM161.058 6.37695V4.83887H155.364V6.37695H161.058ZM169.186 6.37695V4.83887H163.492V6.37695H169.186ZM177.314 6.37695V4.83887H171.62V6.37695H177.314ZM185.443 6.37695V4.83887H179.748V6.37695H185.443ZM193.571 6.37695V4.83887H187.876V6.37695H193.571ZM201.699 6.37695V4.83887H196.005V6.37695H201.699ZM209.827 6.37695V4.83887H204.133V6.37695H209.827ZM217.955 6.37695V4.83887H212.261V6.37695H217.955ZM226.084 6.37695V4.83887H220.389V6.37695H226.084ZM234.212 6.37695V4.83887H228.517V6.37695H234.212ZM242.34 6.37695V4.83887H236.646V6.37695H242.34ZM250.468 6.37695V4.83887H244.774V6.37695H250.468ZM258.596 6.37695V4.83887H252.902V6.37695H258.596ZM266.725 6.37695V4.83887H261.03V6.37695H266.725ZM274.853 6.37695V4.83887H269.158V6.37695H274.853ZM282.981 6.37695V4.83887H277.287V6.37695H282.981ZM291.109 6.37695V4.83887H285.415V6.37695H291.109ZM299.237 6.37695V4.83887H293.543V6.37695H299.237ZM307.366 6.37695V4.83887H301.671V6.37695H307.366ZM315.494 6.37695V4.83887H309.799V6.37695H315.494ZM323.622 6.37695V4.83887H317.928V6.37695H323.622ZM331.75 6.37695V4.83887H326.056V6.37695H331.75ZM339.878 6.37695V4.83887H334.184V6.37695H339.878ZM348.007 6.37695V4.83887H342.312V6.37695H348.007ZM356.135 6.37695V4.83887H350.44V6.37695H356.135ZM364.263 6.37695V4.83887H358.569V6.37695H364.263ZM372.391 6.37695V4.83887H366.697V6.37695H372.391ZM380.519 6.37695V4.83887H374.825V6.37695H380.519ZM388.648 6.37695V4.83887H382.953V6.37695H388.648ZM396.776 6.37695V4.83887H391.081V6.37695H396.776ZM404.904 6.37695V4.83887H399.21V6.37695H404.904ZM413.032 6.37695V4.83887H407.338V6.37695H413.032ZM421.16 6.37695V4.83887H415.466V6.37695H421.16ZM429.289 6.37695V4.83887H423.594V6.37695H429.289ZM437.417 6.37695V4.83887H431.723V6.37695H437.417ZM445.545 6.37695V4.83887H439.851V6.37695H445.545ZM453.673 6.37695V4.83887H447.979V6.37695H453.673ZM461.801 6.37695V4.83887H456.107V6.37695H461.801ZM469.93 6.37695V4.83887H464.235V6.37695H469.93ZM478.058 6.37695V4.83887H472.364V6.37695H478.058ZM486.186 6.37695V4.83887H480.492V6.37695H486.186ZM494.314 6.37695V4.83887H488.62V6.37695H494.314ZM502.442 6.37695V4.83887H496.748V6.37695H502.442ZM510.571 6.37695V4.83887H504.876V6.37695H510.571ZM518.699 6.37695V4.83887H513.005V6.37695H518.699ZM526.827 6.37695V4.83887H521.133V6.37695H526.827ZM534.955 6.37695V4.83887H529.261V6.37695H534.955ZM543.083 6.37695V4.83887H537.389V6.37695H543.083ZM551.212 6.37695V4.83887H545.517V6.37695H551.212ZM559.34 6.37695V4.83887H553.646V6.37695H559.34ZM567.468 6.37695V4.83887H561.774V6.37695H567.468ZM575.596 6.37695V4.83887H569.902V6.37695H575.596ZM583.724 6.37695V4.83887H578.03V6.37695H583.724ZM591.853 6.37695V4.83887H586.158V6.37695H591.853ZM599.981 6.37695V4.83887H594.287V6.37695H599.981ZM608.109 6.37695V4.83887H602.415V6.37695H608.109ZM616.237 6.37695V4.83887H610.543V6.37695H616.237ZM624.365 6.37695V4.83887H618.671V6.37695H624.365ZM632.494 6.37695V4.83887H626.799V6.37695H632.494ZM640.622 6.37695V4.83887H634.928V6.37695H640.622ZM648.75 6.37695V4.83887H643.056V6.37695H648.75ZM656.878 6.37695V4.83887H651.184V6.37695H656.878ZM665.007 6.37695V4.83887H659.312V6.37695H665.007ZM673.135 6.37695V4.83887H667.44V6.37695H673.135ZM681.263 6.37695V4.83887H675.569V6.37695H681.263ZM689.391 6.37695V4.83887H683.697V6.37695H689.391ZM697.519 6.37695V4.83887H691.825V6.37695H697.519ZM705.648 6.37695V4.83887H699.953V6.37695H705.648ZM713.776 6.37695V4.83887H708.081V6.37695H713.776ZM721.904 6.37695V4.83887H716.21V6.37695H721.904ZM730.032 6.37695V4.83887H724.338V6.37695H730.032ZM738.16 6.37695V4.83887H732.466V6.37695H738.16ZM746.289 6.37695V4.83887H740.594V6.37695H746.289ZM754.417 6.37695V4.83887H748.722V6.37695H754.417ZM762.545 6.37695V4.83887H756.851V6.37695H762.545ZM770.673 6.37695V4.83887H764.979V6.37695H770.673ZM778.801 6.37695V4.83887H773.107V6.37695H778.801ZM786.93 6.37695V4.83887H781.235V6.37695H786.93ZM795.058 6.37695V4.83887H789.363V6.37695H795.058ZM803.186 6.37695V4.83887H797.492V6.37695H803.186ZM811.314 6.37695V4.83887H805.62V6.37695H811.314ZM819.442 6.37695V4.83887H813.748V6.37695H819.442ZM827.571 6.37695V4.83887H821.876V6.37695H827.571ZM835.699 6.37695V4.83887H830.004V6.37695H835.699ZM843.827 6.37695V4.83887H838.133V6.37695H843.827ZM851.955 6.37695V4.83887H846.261V6.37695H851.955ZM860.083 6.37695V4.83887H854.389V6.37695H860.083ZM868.212 6.37695V4.83887H862.517V6.37695H868.212ZM876.34 6.37695V4.83887H870.645V6.37695H876.34ZM884.468 6.37695V4.83887H878.774V6.37695H884.468ZM892.596 6.37695V4.83887H886.902V6.37695H892.596ZM900.724 6.37695V4.83887H895.03V6.37695H900.724ZM908.853 6.37695V4.83887H903.158V6.37695H908.853ZM916.981 6.37695V4.83887H911.286V6.37695H916.981ZM925.109 6.37695V4.83887H919.415V6.37695H925.109ZM933.237 6.37695V4.83887H927.543V6.37695H933.237ZM941.365 6.37695V4.83887H935.671V6.37695H941.365ZM949.494 6.37695V4.83887H943.799V6.37695H949.494ZM957.622 6.37695V4.83887H951.927V6.37695H957.622ZM965.75 6.37695V4.83887H960.056V6.37695H965.75ZM973.878 6.37695V4.83887H968.184V6.37695H973.878ZM982.006 6.37695V4.83887H976.312V6.37695H982.006ZM990.135 6.37695V4.83887H984.44V6.37695H990.135ZM998.263 6.37695V4.83887H992.569V6.37695H998.263ZM1006.39 6.37695V4.83887H1000.7V6.37695H1006.39ZM1014.52 6.37695V4.83887H1008.82V6.37695H1014.52ZM1022.65 6.37695V4.83887H1016.95V6.37695H1022.65ZM1030.78 6.37695V4.83887H1025.08V6.37695H1030.78ZM1038.9 6.37695V4.83887H1033.21V6.37695H1038.9ZM1047.03 6.37695V4.83887H1041.34V6.37695H1047.03ZM1055.16 6.37695V4.83887H1049.47V6.37695H1055.16ZM1063.29 6.37695V4.83887H1057.59V6.37695H1063.29ZM1071.42 6.37695V4.83887H1065.72V6.37695H1071.42ZM1079.54 6.37695V4.83887H1073.85V6.37695H1079.54ZM1087.67 6.37695V4.83887H1081.98V6.37695H1087.67ZM1095.8 6.37695V4.83887H1090.11V6.37695H1095.8ZM1103.93 6.37695V4.83887H1098.24V6.37695H1103.93ZM1112.06 6.37695V4.83887H1106.36V6.37695H1112.06ZM1120.19 6.37695V4.83887H1114.49V6.37695H1120.19ZM1128.31 6.37695V4.83887H1122.62V6.37695H1128.31ZM1136.44 6.37695V4.83887H1130.75V6.37695H1136.44ZM1144.57 6.37695V4.83887H1138.88V6.37695H1144.57ZM1152.7 6.37695V4.83887H1147V6.37695H1152.7ZM1160.83 6.37695V4.83887H1155.13V6.37695H1160.83ZM1168.96 6.37695V4.83887H1163.26V6.37695H1168.96ZM1177.08 6.37695V4.83887H1171.39V6.37695H1177.08ZM1185.21 6.37695V4.83887H1179.52V6.37695H1185.21ZM1193.34 6.37695V4.83887H1187.65V6.37695H1193.34ZM1201.47 6.37695V4.83887H1195.77V6.37695H1201.47ZM1209.6 6.37695V4.83887H1203.9V6.37695H1209.6ZM1217.72 6.37695V4.83887H1212.03V6.37695H1217.72ZM1225.85 6.37695V4.83887H1220.16V6.37695H1225.85ZM1233.98 6.37695V4.83887H1228.29V6.37695H1233.98ZM1242.11 6.37695V4.83887H1236.41V6.37695H1242.11ZM1250.24 6.37695V4.83887H1244.54V6.37695H1250.24ZM1258.37 6.37695V4.83887H1252.67V6.37695H1258.37ZM1266.49 6.37695V4.83887H1260.8V6.37695H1266.49ZM1274.62 6.37695V4.83887H1268.93V6.37695H1274.62ZM1282.75 6.37695V4.83887H1277.06V6.37695H1282.75ZM1290.88 6.37695V4.83887H1285.18V6.37695H1290.88ZM1299.01 6.37695V4.83887H1293.31V6.37695H1299.01ZM1307.13 6.37695V4.83887H1301.44V6.37695H1307.13ZM1315.26 6.37695V4.83887H1309.57V6.37695H1315.26ZM1323.39 6.37695V4.83887H1317.7V6.37695H1323.39ZM1331.52 6.37695V4.83887H1325.82V6.37695H1331.52ZM1339.65 6.37695V4.83887H1333.95V6.37695H1339.65ZM1347.78 6.37695V4.83887H1342.08V6.37695H1347.78ZM1355.9 6.37695V4.83887H1350.21V6.37695H1355.9ZM1364.03 6.37695V4.83887H1358.34V6.37695H1364.03ZM1372.16 6.37695V4.83887H1366.47V6.37695H1372.16ZM1380.29 6.37695V4.83887H1374.59V6.37695H1380.29ZM1388.42 6.37695V4.83887H1382.72V6.37695H1388.42ZM1396.54 6.37695V4.83887H1390.85V6.37695H1396.54ZM1404.67 6.37695V4.83887H1398.98V6.37695H1404.67ZM1412.8 6.37695V4.83887H1407.11V6.37695H1412.8ZM1420.93 6.37695V4.83887H1415.24V6.37695H1420.93ZM1429.06 6.37695V4.83887H1423.36V6.37695H1429.06ZM1437.19 6.37695V4.83887H1431.49V6.37695H1437.19ZM1445.31 6.37695V4.83887H1439.62V6.37695H1445.31ZM1453.44 6.37695V4.83887H1447.75V6.37695H1453.44ZM1461.57 6.37695V4.83887H1455.88V6.37695H1461.57ZM1469.7 6.37695V4.83887H1464V6.37695H1469.7ZM1477.83 6.37695V4.83887H1472.13V6.37695H1477.83ZM1485.96 6.37695V4.83887H1480.26V6.37695H1485.96ZM1494.08 6.37695V4.83887H1488.39V6.37695H1494.08ZM1502.21 6.37695V4.83887H1496.52V6.37695H1502.21ZM1510.34 6.37695V4.83887H1504.65V6.37695H1510.34ZM1518.47 6.37695V4.83887H1512.77V6.37695H1518.47ZM1526.6 6.37695V4.83887H1520.9V6.37695H1526.6ZM1534.72 6.37695V4.83887H1529.03V6.37695H1534.72ZM1542.85 6.37695V4.83887H1537.16V6.37695H1542.85ZM1550.98 6.37695V4.83887H1545.29V6.37695H1550.98ZM1559.11 6.37695V4.83887H1553.41V6.37695H1559.11ZM1567.24 6.37695V4.83887H1561.54V6.37695H1567.24ZM1575.37 6.37695V4.83887H1569.67V6.37695H1575.37ZM1583.49 6.37695V4.83887H1577.8V6.37695H1583.49ZM1591.62 6.37695V4.83887H1585.93V6.37695H1591.62ZM1599.75 6.37695V4.83887H1594.06V6.37695H1599.75ZM1607.88 6.37695V4.83887H1602.18V6.37695H1607.88ZM1616.01 6.37695V4.83887H1610.31V6.37695H1616.01ZM1624.13 6.37695V4.83887H1618.44V6.37695H1624.13Z" fill="black"/>
</svg>
