<svg xmlns="http://www.w3.org/2000/svg" viewBox="0 0 26 32"><g fill="none"><path fill="#000" d="M22.818 15.07c-.037-.236-.724-1.092-2.055-2.568-.025-.285.446-.7 1.405-1.24l2.712-2.388c.606-.781.965-2.034 1.083-3.758l-.037-.403c-.106-1.215-.985-2.195-2.637-2.952-.979-.663-2.737-1.017-5.275-1.073-2.104.18-4.853.93-8.233 2.24a31.46 31.46 0 0 1-3.176 2.008l.019.211a.833.833 0 0 0 .316-.124c.136-.012.21.05.222.174l.21-.118.106-.006.006.1c.006.098-.73.675-2.222 1.73l.118.185-.106.007-.229-.081c.006.062-.099.105-.315.124l.012.112.248.272a.903.903 0 0 1-.335-.068c-.483.044-.953.391-1.417 1.048l.117.186c.403-.372.638-.558.706-.564l.025.304c-.068.006-.174.05-.316.124l.254.384A8.391 8.391 0 0 1 5.64 7.578c.29.075.445.168.451.267l.223-.019c1.597-1.184 3.176-2.04 4.742-2.567l.019.21c-.291.435-.49.658-.595.67.013.15.062.28.155.391.025.267-.687 2.065-2.13 5.39C5.232 19.646 2.483 25.363.249 29.06c.006.075.05.174.13.298.55-.13.897-.267 1.046-.397l.117-.012.019.21.204-.018.21-.118c.007.062.075.093.217.08l.019.212c.019.204-.099.514-.347.942-.223.255-.464.788-.718 1.6l.006.1.205-.019c.891-.998 1.566-1.978 2.03-2.933 2.6-.763 4.581-1.514 5.955-2.252 1.38-.117 2.433-.483 3.151-1.085l-.012-.111-.52.155-.118.012-.012-.112c1.015-.155 1.715-.378 2.105-.688 1.975-1.526 3.466-2.605 4.475-3.243 2.074-1.526 3.424-3.014 4.037-4.46.111-.024.223-.049.346-.08.194-.008.203-.699.025-2.071zM4.494 7.864l-.105.006-.019-.192.428-.038.006.1a.82.82 0 0 0-.31.124zM2.408 28.769c-.248-.112-.47-.155-.662-.136l-.025-.304c-.012-.118.056-.199.204-.23.136-.012.217.087.23.285.358-.44.556-.663.594-.67l.229.094c-.075.62-.267.936-.57.961zM24.7 5.408c-.105.012-.316-.317-.619-.968l-.019-.192c.198-.019.403.304.62.968l.018.192zm-.297-2.313l-.087.204-3.027-1.265c2.018.068 3.058.422 3.114 1.06zM11.62 14.09l-.428.037-.018-.192.427-.037.019.192zm-.242-6.61l.025.303c-.1.006-.23.155-.39.44l-.019-.21c.192-.23.291-.404.279-.528l.105-.006zm-1.003 2.126l.037.403-.105.007-.037-.404.105-.006zm-.47.757l.204-.019c-.019.335-.111.515-.279.527l-.105.007c.13-.224.192-.397.18-.515zm-.235 1.042l.006.099-.192.322-.204.019-.007-.1c.205-.018.297-.123.279-.328l.118-.012zm-.465.96l-.062.51-.105.006-.043-.503.21-.012zm-3.473 9.892c-.136.695-.284 1.048-.44 1.06l-.005-.098c-.037-.341.111-.664.445-.962zm-.637 1.383l.006.1c.012.136-.05.217-.186.223l-.006-.1c-.012-.117.05-.192.186-.223zm.136 2.84l.012.112a.833.833 0 0 0-.315.124l-.205.019c-.012-.106.056-.186.186-.223l.322-.031zm5.652-.985c-1.956.682-2.928 1.103-2.91 1.27-1.74.69-2.884 1.198-3.435 1.514-.13.012-.316-.037-.564-.149-.03-.353.13-.639.47-.868.304-.025.595.019.874.136.322-.167.885-.353 1.683-.551l-.018-.211-.644.055c.08-.111.7-.403 1.863-.874l.322-.031.006.1c-.55.049-.854.21-.922.502.012.13.087.186.223.173.415-.26.619-.415.613-.459.786-.149 2.959-1.29 6.518-3.417l.019.193c.006.093-.297.353-.91.8-1.808.893-2.872 1.5-3.188 1.817zm-.935-.64c.149-.012.23.044.235.174-.253.025-.743.236-1.454.645l-.106.007-.012-.205c.52-.043.966-.254 1.337-.62zm4.742-3.987c-2.03 1.334-3.12 2.003-3.281 2.016-3.231 1.78-5.243 2.704-6.023 2.772l-.118.012c.1-.366 1.535-3.311 4.321-8.856 1.226-.105 3.157-.676 5.788-1.717l.644-.056c1.33-.118 2.328.142 2.984.763l.037.403c-.49 1.42-1.034 2.25-1.622 2.493l-2.73 2.17zm-2.606-5.178l.44-.037.006.099-.44.037-.006-.1zm6.494-1.08c.297.143.452.268.464.38l.006.098c-.285.025-.55-.124-.792-.446l.322-.031zm.55-4.948c-.284.341-1.064.924-2.34 1.743-.42.037-1.987.645-4.698 1.835a.857.857 0 0 0-.433-.074l-.019-.192c-.03-.391.142-.881.526-1.476.21-1.117.44-1.755.694-1.91l2.26-5.092c-.026-.316.457-.558 1.448-.725l.322-.031.024.291c.972-.149 1.579-.236 1.814-.254 1.795-.155 2.73.21 2.804 1.085l.205-.019-.044-.514.223-.019c.526.292.811.645.848 1.06.025.286-.13.64-.458 1.061-.136.012-.216-.087-.229-.285l-.223.018-.05.62c-.91 1.365-1.572 2.066-1.98 2.103-.372.515-.6.769-.693.775zm.942 3.392l-.025-.304.204-.018.452.266c.019.143-.043.218-.186.23-.185-.124-.334-.18-.445-.174zm2.222 2.127l-.1.025.007.006a.22.22 0 0 0-.062.013l-.148.118-.038-.41c.199.081.316.168.34.248zm-.204.608l-.019-.08.26-.062.019.08-.26.062zm.625.7c.177-.028.167.013-.031.125.012-.043.025-.087.03-.124zm-.025.522l-.018-.08c.433-.042.439-.015.018.08z"/><path fill="#F9DC3E" d="M22.57 14.388c-.037-.236-.724-1.092-2.055-2.568-.025-.285.446-.7 1.405-1.24l2.712-2.388c.607-.781.966-2.034 1.083-3.758l-.037-.403c-.105-1.215-.984-2.195-2.637-2.952C22.063.416 20.305.062 17.767.006c-2.105.18-4.854.93-8.234 2.239a31.46 31.46 0 0 1-3.175 2.01l.018.21a.833.833 0 0 0 .316-.124c.136-.012.21.05.223.174l.21-.118.105-.006.007.099c.006.1-.73.676-2.223 1.73l.118.186-.105.006-.23-.08c.007.062-.098.105-.315.124l.012.111.248.273a.903.903 0 0 1-.334-.068c-.483.044-.954.39-1.418 1.048l.118.186c.402-.372.637-.558.705-.564l.025.304c-.068.006-.173.05-.316.124l.254.384a8.391 8.391 0 0 1 1.616-1.358c.29.075.446.168.452.267l.223-.019c1.597-1.184 3.175-2.04 4.742-2.567l.018.21c-.29.435-.489.658-.594.67.012.15.062.28.155.391.024.267-.688 2.065-2.13 5.39C4.983 18.963 2.235 24.681 0 28.377c.006.075.05.174.13.298.551-.13.898-.267 1.046-.397l.118-.012.018.21.205-.018.21-.118c.006.062.074.093.217.08l.018.212c.019.204-.099.514-.346.942-.223.254-.465.788-.718 1.6l.006.1.204-.02c.892-.998 1.566-1.977 2.03-2.933 2.6-.762 4.582-1.513 5.956-2.25 1.38-.119 2.433-.484 3.15-1.086l-.012-.112-.52.155-.117.013-.013-.112c1.016-.155 1.715-.378 2.105-.688 1.975-1.526 3.467-2.605 4.476-3.244 2.074-1.525 3.423-3.014 4.036-4.458.111-.025.223-.05.347-.081.194-.008.202-.699.024-2.071zM4.247 7.18l-.106.007-.018-.193.427-.037.006.1a.82.82 0 0 0-.31.123zM2.16 28.087c-.247-.112-.47-.155-.662-.137l-.025-.303c-.012-.118.056-.199.205-.23.136-.012.216.087.229.285.359-.44.557-.663.594-.67l.229.094c-.074.62-.266.936-.57.96zM24.452 4.726c-.105.012-.315-.317-.619-.968l-.018-.192c.198-.019.402.304.619.967l.018.193zm-.297-2.314l-.086.205-3.028-1.265c2.019.068 3.059.422 3.114 1.06zM11.372 13.408l-.427.037-.019-.192.427-.037.019.192zm-.242-6.611l.025.304c-.099.006-.229.155-.39.44l-.018-.21c.192-.23.29-.404.278-.528l.105-.006zm-1.002 2.127l.037.403-.105.006-.038-.403.106-.006zm-.47.757l.203-.019c-.018.335-.111.515-.278.527l-.105.006c.13-.223.192-.397.18-.514zm-.236 1.041l.006.1-.192.322-.204.019-.006-.1c.204-.018.297-.123.278-.328l.118-.013zm-.464.962l-.062.508-.106.006-.043-.502.21-.012zm-3.473 9.891c-.136.695-.285 1.048-.44 1.06l-.006-.099c-.037-.34.111-.663.446-.96zm-.638 1.383l.006.1c.013.136-.05.216-.185.223l-.007-.1c-.012-.117.05-.192.186-.223zm.136 2.84l.013.112a.833.833 0 0 0-.316.124l-.204.019c-.013-.106.055-.186.185-.224l.322-.03zm5.652-.986c-1.956.683-2.928 1.104-2.91 1.272-1.739.688-2.884 1.197-3.435 1.513-.13.012-.316-.037-.563-.149-.031-.353.13-.639.47-.868.303-.025.594.018.873.136.322-.167.885-.353 1.684-.552l-.019-.21-.644.055c.08-.111.7-.403 1.864-.874l.322-.031.006.1c-.551.049-.854.21-.923.501.013.13.087.186.223.174.415-.26.62-.415.613-.459.786-.149 2.96-1.29 6.519-3.417l.018.192c.007.093-.297.354-.91.8-1.807.893-2.872 1.501-3.188 1.817zm-.935-.638c.149-.013.23.043.236.173-.254.025-.743.236-1.455.645l-.105.006-.013-.204c.52-.044.966-.254 1.337-.62zm4.742-3.988c-2.03 1.333-3.12 2.003-3.28 2.016-3.232 1.78-5.244 2.703-6.024 2.772l-.118.012c.1-.366 1.536-3.312 4.321-8.856 1.226-.105 3.158-.676 5.789-1.718l.643-.055c1.331-.118 2.328.142 2.984.762l.037.403c-.489 1.42-1.034 2.252-1.622 2.494l-2.73 2.17zm-2.606-5.178l.44-.037.006.099-.44.037-.006-.1zm6.494-1.08c.297.143.452.267.464.379l.006.1c-.284.024-.55-.125-.792-.447l.322-.031zm.551-4.948c-.285.34-1.065.924-2.34 1.742-.421.038-1.987.645-4.699 1.836a.857.857 0 0 0-.433-.074l-.019-.193c-.03-.39.143-.88.527-1.475.21-1.117.44-1.756.693-1.91l2.26-5.092c-.025-.316.458-.558 1.448-.726l.322-.03.025.29c.972-.148 1.578-.235 1.814-.253 1.795-.155 2.73.21 2.804 1.085l.204-.019-.043-.514.223-.02c.526.292.81.646.848 1.061.025.286-.13.64-.458 1.06-.137.013-.217-.086-.23-.284l-.222.018-.05.62c-.91 1.365-1.572 2.065-1.98 2.103-.372.514-.601.769-.694.775zm.94 3.392l-.024-.304.204-.018.452.266c.019.143-.043.217-.185.23-.186-.124-.335-.18-.446-.174zm2.223 2.127l-.099.025.006.006a.22.22 0 0 0-.061.013l-.149.117-.037-.409c.198.08.316.168.34.248zm-.204.608l-.019-.08.26-.063.019.081-.26.062zm.625.7c.178-.028.167.013-.03.125.012-.044.024-.087.03-.124zm-.025.522l-.018-.08c.433-.042.44-.015.018.08z"/></g></svg>