<svg xmlns="http://www.w3.org/2000/svg" viewBox="0 0 32 28"><g fill="none" fill-rule="evenodd"><path fill="#8080F2" d="M9.753 10.206l6.054-3.48a.492.492 0 0 1 .49 0l6.053 3.48a.487.487 0 0 1 .245.423v6.96a.488.488 0 0 1-.244.421l-6.055 3.48a.492.492 0 0 1-.49 0l-6.053-3.48a.487.487 0 0 1-.245-.422v-6.96c0-.174.093-.334.245-.422"/><path fill="#4B32C3" fill-rule="nonzero" d="M31.792 13.376L24.559.848c-.263-.453-.748-.787-1.274-.787H8.818c-.525 0-1.01.334-1.274.787l-7.233 12.5a1.484 1.484 0 0 0 0 1.479l7.233 12.425c.263.453.749.685 1.274.685h14.467c.525 0 1.01-.225 1.273-.678l7.234-12.446a1.407 1.407 0 0 0 0-1.437zm-5.99 6.025a.528.528 0 0 1-.271.446l-9.214 5.293a.526.526 0 0 1-.521 0l-9.221-5.293a.529.529 0 0 1-.273-.446V8.816c0-.184.11-.355.271-.447l9.214-5.292a.525.525 0 0 1 .52 0l9.222 5.292a.53.53 0 0 1 .273.447v10.585z"/></g></svg>