<svg xmlns="http://www.w3.org/2000/svg" viewBox="0 0 32 32"><path fill="#F05133" fill-rule="evenodd" d="M31.377 14.565L17.413.603a2.06 2.06 0 0 0-2.912 0l-2.899 2.9 3.678 3.678a2.445 2.445 0 0 1 3.097 3.118l3.545 3.545a2.447 2.447 0 0 1 3.25 2.314 2.45 2.45 0 0 1-4.185 1.733 2.45 2.45 0 0 1-.533-2.665l-3.306-3.308v8.7a2.451 2.451 0 1 1-2.014-.071v-8.78a2.45 2.45 0 0 1-1.33-3.214l-3.627-3.626L.604 14.5a2.06 2.06 0 0 0 0 2.914l13.962 13.962a2.06 2.06 0 0 0 2.912 0l13.899-13.897a2.06 2.06 0 0 0 0-2.913"/></svg>