<svg xmlns="http://www.w3.org/2000/svg" viewBox="0 0 14 32"><path fill="#CF4646" fill-rule="evenodd" d="M10.789 31.025l.297-5.113.819-1.446s-1.865.789-4.988.789c-3.122 0-4.96-.775-4.96-.775l.92 1.578.324 4.967c0 .532 1.699.964 3.794.964 2.095 0 3.794-.432 3.794-.964zM13.912.865l-3.437 3.739-.623 2.545c2.428.158 4.12.513 4.12.924 0 .56-3.119 1.012-6.965 1.012-3.847 0-6.965-.453-6.965-1.012 0-.559 3.118-1.012 6.965-1.012.544 0 1.09.01 1.633.028l.724-3.04L13.016.05c.087-.103.36-.006.608.217.243.217.375.475.3.583h.001l-.006.008a.204.204 0 0 1-.007.007zm-3.29 17.672c-.08-.814 1.721-1.991 1.259-2.03-.996.06-1.491 1.207-1.992 2.41-.184.44-.812 2.318-1.224 2.087-.412-.231.534-1.776.799-2.693-.306.232-1.428 1.133-1.717.289-.465.408-1.458.63-1.346-.443-.247.453-.802 1.085-1.469.822-.874-.344.507-3.226.851-3.08.344.145-.07.801-.178 1.056-.237.561-.512 1.266-.329 1.41.315.248 1.17-.935 1.19-.961.16-.219.616-1.649.983-1.485.368.165-.916 2.053-.436 2.428.097.075.493-.047.734-.316.156-.175.102-.561.622-1.843s.984-2.878 1.34-2.756c.357.121.063.94-.065 1.246-.6 1.433-1.638 3.801-1.149 3.622.49-.18.745-.19 1.224-.77.48-.58.457-1.535.777-1.514.32.02.266.326.188.56.315-.372 1.49-1.156 1.775-.38.336.919-1.683 2.246-1.18 2.178.491-.066 1.286-.587 1.626-1.06l.934-8.686s-.94.805-6.923.805c-5.982 0-6.825-.788-6.825-.788l.795 7.928c.423-1.24 1.426-3.75 3.006-3.667.72.039 1.68 1.47.857 1.519-.348.02-.383-.715-.796-.823-.297-.078-.711.172-.979.443-.533.54-1.681 2.67-1.53 3.732.194 1.354 1.808-.47 2.081-1.012.192-.381.322-1.512.743-1.393.42.118-.037 1.285-.342 2.316-.342 1.159-.522 2.38-.952 2.24-.429-.14.27-1.636.245-1.898-.403.385-1.147 1.36-2.098.877l.494 4.924s1.313 1.072 5.269 1.072c3.956 0 5.318-1.056 5.318-1.056l.613-5.702c-.502.505-2.09 1.403-2.192.391z"/></svg>