<svg xmlns="http://www.w3.org/2000/svg" viewBox="0 0 32 32"><path fill="#BE5F8A" fill-rule="evenodd" d="M15.995.01c8.834 0 15.995 7.161 15.995 15.995S24.829 32 15.995 32 0 24.839 0 16.005 7.161.01 15.995.01zm-3.179 21.323c.233.86.207 1.663-.033 2.39-.053.162-.117.32-.191.474a4.47 4.47 0 0 1-.74 1.077c-.929 1.013-2.227 1.397-2.784 1.074-.601-.349-.3-1.778.777-2.917 1.16-1.226 2.827-2.014 2.827-2.014l-.002-.005c.048-.025.097-.052.146-.08zM26.028 6.856c-.724-2.84-5.434-3.775-9.893-2.19-2.653.942-5.525 2.421-7.59 4.353-2.455 2.296-2.847 4.295-2.685 5.13.569 2.948 4.607 4.874 6.267 6.304v.008c-.49.241-4.072 2.055-4.91 3.908-.885 1.956.14 3.359.82 3.548 2.103.585 4.262-.468 5.422-2.198 1.12-1.67 1.026-3.826.54-4.899.67-.177 1.453-.256 2.447-.14 2.806.328 3.357 2.08 3.251 2.813-.105.733-.693 1.136-.89 1.258-.197.121-.257.164-.24.254.024.132.115.127.282.098.231-.039 1.474-.596 1.527-1.95.068-1.718-1.58-3.64-4.495-3.59-1.2.02-1.956.135-2.501.338a5.596 5.596 0 0 0-.124-.137c-1.803-1.923-5.135-3.284-4.994-5.869.052-.94.379-3.415 6.403-6.417 4.936-2.46 8.887-1.783 9.57-.283.975 2.143-2.112 6.125-7.237 6.7-1.953.219-2.981-.538-3.237-.82-.27-.296-.31-.31-.41-.254-.164.09-.06.352 0 .509.153.398.781 1.104 1.852 1.455.941.31 3.234.48 6.007-.593 3.105-1.202 5.53-4.543 4.818-7.336z"/></svg>